<svg width="113" height="62" viewBox="0 0 113 62" fill="none" xmlns="http://www.w3.org/2000/svg">
<path d="M17.6484 1.4375C17.7214 1.4375 17.763 1.45833 17.7734 1.5C17.7839 1.53125 17.7318 1.58854 17.6172 1.67188C17.5964 1.69271 17.5859 1.71354 17.5859 1.73438C17.5859 1.74479 17.5859 1.76042 17.5859 1.78125C17.5859 1.80208 17.5755 1.83333 17.5547 1.875C17.5443 1.90625 17.513 1.95312 17.4609 2.01562C17.3672 2.11979 17.1953 2.32812 16.9453 2.64062C16.6953 2.95312 16.3984 3.33333 16.0547 3.78125C15.7109 4.21875 15.3307 4.70833 14.9141 5.25C14.5078 5.79167 14.0859 6.34896 13.6484 6.92188C13.2214 7.49479 12.7943 8.06771 12.3672 8.64062C11.9505 9.20312 11.5599 9.73438 11.1953 10.2344C10.8307 10.724 10.513 11.1615 10.2422 11.5469C9.97135 11.9219 9.77344 12.2135 9.64844 12.4219V12.9219C9.64844 13.3177 9.63802 13.7969 9.61719 14.3594C9.60677 14.9219 9.59115 15.5208 9.57031 16.1562C9.54948 16.7812 9.52865 17.4167 9.50781 18.0625C9.48698 18.7083 9.46615 19.3073 9.44531 19.8594C9.42448 20.4115 9.40365 20.8958 9.38281 21.3125C9.3724 21.7292 9.36719 22.026 9.36719 22.2031C9.36719 22.349 9.35677 22.4583 9.33594 22.5312C9.32552 22.6042 9.30469 22.6562 9.27344 22.6875C9.24219 22.7083 9.19531 22.7188 9.13281 22.7188C9.08073 22.7188 9.00781 22.7188 8.91406 22.7188C8.82031 22.7188 8.76823 22.6875 8.75781 22.625C8.7474 22.5625 8.72656 22.5208 8.69531 22.5C8.66406 22.4896 8.64323 22.5104 8.63281 22.5625C8.6224 22.6146 8.61719 22.6719 8.61719 22.7344C8.61719 22.7969 8.61198 22.8542 8.60156 22.9062C8.60156 22.9583 8.59115 22.9844 8.57031 22.9844C8.50781 22.9844 8.4401 22.9688 8.36719 22.9375C8.30469 22.8958 8.24219 22.8542 8.17969 22.8125C8.1276 22.7708 8.07552 22.7396 8.02344 22.7188C7.98177 22.6875 7.95052 22.6771 7.92969 22.6875C7.90885 22.6979 7.90365 22.7188 7.91406 22.75C7.92448 22.7812 7.92969 22.8125 7.92969 22.8438C7.92969 22.875 7.92448 22.901 7.91406 22.9219C7.90365 22.9323 7.8776 22.9271 7.83594 22.9062C7.78385 22.8958 7.73177 22.875 7.67969 22.8438C7.6276 22.8021 7.58073 22.7708 7.53906 22.75C7.4974 22.7188 7.46094 22.7083 7.42969 22.7188C7.40885 22.7188 7.39323 22.75 7.38281 22.8125C7.36198 22.9583 7.34635 23.1042 7.33594 23.25C7.32552 23.3854 7.28906 23.4427 7.22656 23.4219C7.1224 23.401 6.98698 23.3594 6.82031 23.2969C6.65365 23.2344 6.55469 23.1042 6.52344 22.9062C6.5026 22.7812 6.49219 22.625 6.49219 22.4375C6.49219 22.25 6.49219 22.0365 6.49219 21.7969C6.49219 21.2656 6.5026 20.6458 6.52344 19.9375C6.55469 19.2292 6.58594 18.5052 6.61719 17.7656C6.64844 17.026 6.67448 16.3125 6.69531 15.625C6.72656 14.9375 6.74219 14.349 6.74219 13.8594C6.74219 13.1927 6.71094 12.7969 6.64844 12.6719C6.59635 12.5885 6.4349 12.3333 6.16406 11.9062C5.89323 11.4688 5.55469 10.9375 5.14844 10.3125C4.7526 9.67708 4.3099 8.97917 3.82031 8.21875C3.34115 7.45833 2.86719 6.70833 2.39844 5.96875C1.9401 5.21875 1.50781 4.51562 1.10156 3.85938C0.705729 3.20312 0.388021 2.66146 0.148438 2.23438C0.106771 2.16146 0.0755208 2.08333 0.0546875 2C0.0338542 1.90625 0.0182292 1.81771 0.0078125 1.73438C-0.00260417 1.65104 -0.00260417 1.58333 0.0078125 1.53125C0.0182292 1.46875 0.0338542 1.42708 0.0546875 1.40625C0.0963542 1.38542 0.153646 1.36458 0.226562 1.34375C0.289062 1.32292 0.367188 1.3125 0.460938 1.3125C0.554688 1.30208 0.674479 1.30208 0.820312 1.3125C0.861979 1.4375 0.898438 1.51562 0.929688 1.54688C0.960938 1.57812 0.992188 1.58854 1.02344 1.57812C1.05469 1.55729 1.08594 1.52604 1.11719 1.48438C1.14844 1.43229 1.17969 1.39583 1.21094 1.375C1.32552 1.26042 1.39844 1.19792 1.42969 1.1875C1.46094 1.17708 1.53385 1.21875 1.64844 1.3125C1.7526 1.40625 1.83073 1.43229 1.88281 1.39062C1.9349 1.34896 2.00781 1.25 2.10156 1.09375C2.19531 0.958333 2.29948 0.927083 2.41406 1C2.53906 1.0625 2.67969 1.1875 2.83594 1.375L3.07031 1.64062C3.19531 1.78646 3.38802 2.05208 3.64844 2.4375C3.90885 2.8125 4.20573 3.26042 4.53906 3.78125C4.88281 4.30208 5.2474 4.875 5.63281 5.5C6.02865 6.11458 6.41927 6.73438 6.80469 7.35938C7.1901 7.98438 7.5599 8.58854 7.91406 9.17188C8.26823 9.75521 8.58073 10.2708 8.85156 10.7188C9.07031 10.3333 9.36198 9.85417 9.72656 9.28125C10.1016 8.69792 10.5026 8.08333 10.9297 7.4375C11.3568 6.79167 11.7995 6.14062 12.2578 5.48438C12.7161 4.81771 13.1484 4.20312 13.5547 3.64062C13.9609 3.07812 14.3203 2.59896 14.6328 2.20312C14.9557 1.79688 15.1953 1.53125 15.3516 1.40625C15.4245 1.34375 15.487 1.29688 15.5391 1.26562C15.6016 1.23438 15.6536 1.21354 15.6953 1.20312C15.7474 1.18229 15.7943 1.17188 15.8359 1.17188C15.888 1.17188 15.9401 1.16667 15.9922 1.15625C16.1484 1.15625 16.2474 1.16667 16.2891 1.1875C16.3411 1.20833 16.3724 1.22917 16.3828 1.25C16.4036 1.27083 16.4193 1.29167 16.4297 1.3125C16.4505 1.32292 16.4974 1.32292 16.5703 1.3125C16.7266 1.29167 16.8776 1.28125 17.0234 1.28125C17.1693 1.28125 17.2526 1.3125 17.2734 1.375C17.2734 1.39583 17.2891 1.41146 17.3203 1.42188C17.3516 1.43229 17.4609 1.4375 17.6484 1.4375Z" fill="#543B25"/>
<path d="M36.6016 9.82812C36.612 9.94271 36.6172 10.0521 36.6172 10.1562C36.6172 10.2604 36.6172 10.3698 36.6172 10.4844C36.6172 11.6094 36.4609 12.7656 36.1484 13.9531C35.8464 15.1406 35.4141 16.2708 34.8516 17.3438C34.2891 18.4062 33.6068 19.375 32.8047 20.25C32.0026 21.1146 31.1068 21.7917 30.1172 22.2812C29.5339 22.5625 28.9036 22.7708 28.2266 22.9062C27.5495 23.0417 26.8672 23.1094 26.1797 23.1094C25.6797 23.1094 25.1849 23.0729 24.6953 23C24.2161 22.9271 23.7578 22.8333 23.3203 22.7188C22.3411 22.4375 21.4609 22.0052 20.6797 21.4219C19.9089 20.8281 19.2474 20.1458 18.6953 19.375C18.1432 18.6042 17.7057 17.776 17.3828 16.8906C17.0703 15.9948 16.888 15.1094 16.8359 14.2344C16.8255 14.1094 16.8151 13.9844 16.8047 13.8594C16.8047 13.7344 16.8047 13.6094 16.8047 13.4844C16.8047 12.5156 16.9245 11.5521 17.1641 10.5938C17.4036 9.625 17.7266 8.70312 18.1328 7.82812C18.5495 6.94271 19.0286 6.11458 19.5703 5.34375C20.1224 4.57292 20.7057 3.89583 21.3203 3.3125C21.9453 2.72917 22.5807 2.25521 23.2266 1.89062C23.8828 1.51562 24.5234 1.28125 25.1484 1.1875C25.2318 1.17708 25.2839 1.17188 25.3047 1.17188C25.3359 1.16146 25.3568 1.15625 25.3672 1.15625C25.3776 1.15625 25.388 1.16146 25.3984 1.17188C25.4089 1.17188 25.4349 1.16667 25.4766 1.15625C25.7161 1.13542 25.888 1.13021 25.9922 1.14062C26.0964 1.15104 26.1589 1.16667 26.1797 1.1875C26.2005 1.21875 26.1953 1.23958 26.1641 1.25C26.1432 1.26042 26.1068 1.28125 26.0547 1.3125C26.0339 1.3125 26.0078 1.31771 25.9766 1.32812C25.9557 1.33854 25.9557 1.35417 25.9766 1.375C25.9974 1.42708 25.9766 1.47396 25.9141 1.51562C25.8516 1.55729 25.8099 1.58854 25.7891 1.60938C25.7682 1.63021 25.763 1.64583 25.7734 1.65625C25.7839 1.66667 25.7891 1.67188 25.7891 1.67188C25.7995 1.67188 25.7995 1.67708 25.7891 1.6875C25.7891 1.69792 25.7682 1.71354 25.7266 1.73438C25.6016 1.81771 25.4661 1.89583 25.3203 1.96875C25.1849 2.03125 25.0443 2.10938 24.8984 2.20312C24.1484 2.74479 23.487 3.44271 22.9141 4.29688C22.3411 5.15104 21.862 6.09375 21.4766 7.125C21.0911 8.15625 20.7995 9.24479 20.6016 10.3906C20.4036 11.526 20.3047 12.651 20.3047 13.7656C20.3047 13.9115 20.3047 14.0573 20.3047 14.2031C20.3047 14.3385 20.3099 14.4792 20.3203 14.625C20.3411 15.0729 20.4141 15.5625 20.5391 16.0938C20.6641 16.625 20.8307 17.1562 21.0391 17.6875C21.2578 18.2083 21.5182 18.7135 21.8203 19.2031C22.1328 19.6927 22.487 20.1302 22.8828 20.5156C23.2786 20.8906 23.7214 21.1979 24.2109 21.4375C24.7005 21.6667 25.237 21.7865 25.8203 21.7969C26.6953 21.8281 27.4818 21.6875 28.1797 21.375C28.8776 21.0625 29.4922 20.6458 30.0234 20.125C30.5651 19.5938 31.0286 18.9896 31.4141 18.3125C31.7995 17.625 32.1172 16.9219 32.3672 16.2031C32.6276 15.474 32.8307 14.7604 32.9766 14.0625C33.1224 13.3542 33.2214 12.7188 33.2734 12.1562C33.2943 11.9375 33.3099 11.7188 33.3203 11.5C33.3307 11.2708 33.3359 11.0521 33.3359 10.8438C33.3359 9.51042 33.1589 8.32292 32.8047 7.28125C32.4609 6.23958 31.9974 5.35938 31.4141 4.64062C30.8411 3.92188 30.1797 3.36979 29.4297 2.98438C28.6797 2.58854 27.9036 2.375 27.1016 2.34375C27.0182 2.33333 26.9193 2.33333 26.8047 2.34375C26.6901 2.34375 26.5703 2.34375 26.4453 2.34375C26.3307 2.34375 26.2266 2.34896 26.1328 2.35938C26.0495 2.35938 25.9974 2.35417 25.9766 2.34375C25.8411 2.28125 25.7578 2.23438 25.7266 2.20312L25.6953 2.17188C25.6953 2.08854 25.7161 2.02604 25.7578 1.98438L25.9141 1.90625C25.9661 1.88542 26.013 1.86458 26.0547 1.84375C26.1068 1.8125 26.1484 1.78646 26.1797 1.76562C26.2005 1.73438 26.1953 1.71354 26.1641 1.70312C26.1328 1.68229 26.1172 1.63542 26.1172 1.5625C26.0964 1.51042 26.112 1.46354 26.1641 1.42188C26.2161 1.36979 26.2526 1.34375 26.2734 1.34375C26.3672 1.3125 26.4297 1.29688 26.4609 1.29688C26.5026 1.28646 26.5547 1.28125 26.6172 1.28125C26.7214 1.27083 26.8047 1.26042 26.8672 1.25C26.9401 1.22917 27.0026 1.20833 27.0547 1.1875C27.1172 1.16667 27.1849 1.15104 27.2578 1.14062C27.3307 1.11979 27.4297 1.10417 27.5547 1.09375C27.6484 1.07292 27.7526 1.0625 27.8672 1.0625C27.9818 1.0625 28.1536 1.05208 28.3828 1.03125C29.2786 1.01042 30.0964 1.11458 30.8359 1.34375C31.5859 1.5625 32.2578 1.88021 32.8516 2.29688C33.4557 2.71354 33.9818 3.20833 34.4297 3.78125C34.8776 4.34375 35.2526 4.95833 35.5547 5.625C35.8672 6.28125 36.1068 6.96875 36.2734 7.6875C36.4505 8.40625 36.5599 9.11979 36.6016 9.82812Z" fill="#543B25"/>
<path d="M55.0234 2.23438C55.0026 2.71354 54.9766 3.33854 54.9453 4.10938C54.9245 4.86979 54.8984 5.72396 54.8672 6.67188C54.8464 7.60938 54.8203 8.60938 54.7891 9.67188C54.7682 10.7344 54.7474 11.8021 54.7266 12.875C54.7057 13.9479 54.6901 14.9948 54.6797 16.0156C54.6693 17.0365 54.6641 17.9792 54.6641 18.8438C54.6641 19.8125 54.6693 20.6406 54.6797 21.3281C54.7005 22.0156 54.7266 22.4896 54.7578 22.75C54.7786 22.8333 54.7786 22.8906 54.7578 22.9219C54.7474 22.9531 54.7266 22.974 54.6953 22.9844C54.6641 22.9948 54.6276 23.0052 54.5859 23.0156C54.5443 23.0156 54.5078 23.026 54.4766 23.0469C54.4453 23.0677 54.4297 23.099 54.4297 23.1406C54.4297 23.1823 54.4297 23.224 54.4297 23.2656C54.4297 23.3073 54.4245 23.3438 54.4141 23.375C54.4036 23.4062 54.3724 23.4219 54.3203 23.4219C53.987 23.4219 53.737 23.3906 53.5703 23.3281C53.4141 23.2656 53.2682 23.1615 53.1328 23.0156C52.9766 22.849 52.8359 22.6615 52.7109 22.4531C52.5964 22.2448 52.5234 22.0052 52.4922 21.7344C52.4818 21.6406 52.4661 21.5156 52.4453 21.3594C52.4245 21.2031 52.3984 21.0312 52.3672 20.8438C52.3464 20.6458 52.3255 20.4323 52.3047 20.2031C52.2943 19.974 52.2943 19.7344 52.3047 19.4844C52.3047 19.1927 52.2995 18.9062 52.2891 18.625C52.2786 18.3438 52.263 18.0677 52.2422 17.7969C52.1172 18.1198 51.9714 18.4896 51.8047 18.9062C51.638 19.3125 51.4349 19.7292 51.1953 20.1562C50.9557 20.5833 50.6797 21 50.3672 21.4062C50.0651 21.8125 49.7109 22.1771 49.3047 22.5C48.9089 22.8125 48.4609 23.0677 47.9609 23.2656C47.4609 23.4531 46.9036 23.5469 46.2891 23.5469C45.7995 23.5469 45.2839 23.4844 44.7422 23.3594C44.0234 23.1719 43.4036 22.8958 42.8828 22.5312C42.362 22.1667 41.9193 21.724 41.5547 21.2031C41.1901 20.6719 40.888 20.0729 40.6484 19.4062C40.4193 18.7292 40.2266 17.9896 40.0703 17.1875C40.0182 16.8958 39.9766 16.5781 39.9453 16.2344C39.9245 15.8802 39.9141 15.4844 39.9141 15.0469C39.9141 14.1615 39.9557 13.1771 40.0391 12.0938C40.1224 11.0104 40.2161 9.91146 40.3203 8.79688C40.4245 7.68229 40.5234 6.59375 40.6172 5.53125C40.7109 4.45833 40.7682 3.5 40.7891 2.65625C40.7891 2.38542 40.8099 2.17708 40.8516 2.03125C40.9036 1.875 41.0391 1.75521 41.2578 1.67188C41.2995 1.66146 41.3411 1.66667 41.3828 1.6875C41.4245 1.69792 41.4661 1.70833 41.5078 1.71875C41.5495 1.71875 41.5964 1.70833 41.6484 1.6875C41.7005 1.66667 41.7526 1.625 41.8047 1.5625C41.8672 1.46875 41.9245 1.42188 41.9766 1.42188C42.0286 1.41146 42.0703 1.42708 42.1016 1.46875C42.1432 1.51042 42.1797 1.55729 42.2109 1.60938C42.2526 1.66146 42.2891 1.69271 42.3203 1.70312C42.362 1.72396 42.4245 1.77604 42.5078 1.85938C42.6016 1.94271 42.6901 2.04167 42.7734 2.15625C42.8568 2.26042 42.9297 2.36979 42.9922 2.48438C43.0547 2.58854 43.0859 2.67708 43.0859 2.75C43.0859 2.83333 43.1172 2.98438 43.1797 3.20312C43.2422 3.42188 43.2839 3.72917 43.3047 4.125C43.3359 4.63542 43.3359 5.25521 43.3047 5.98438C43.2839 6.70312 43.2474 7.47917 43.1953 8.3125C43.1432 9.13542 43.0859 9.97917 43.0234 10.8438C42.9609 11.7083 42.9036 12.5417 42.8516 13.3438C42.7995 14.1458 42.7578 14.8854 42.7266 15.5625C42.6953 16.2292 42.6953 16.7812 42.7266 17.2188C42.7995 18.2188 42.8828 19.0052 42.9766 19.5781C43.0807 20.1406 43.1901 20.4531 43.3047 20.5156C43.4193 20.5781 43.5547 20.6198 43.7109 20.6406C43.8776 20.6615 44.0964 20.6719 44.3672 20.6719C45.888 20.599 47.1536 20.3177 48.1641 19.8281C49.1745 19.3281 49.987 18.5938 50.6016 17.625C51.2266 16.6562 51.6849 15.4323 51.9766 13.9531C52.2786 12.4635 52.4714 10.6927 52.5547 8.64062C52.5859 7.78646 52.6224 7.02604 52.6641 6.35938C52.7057 5.69271 52.7474 5.08854 52.7891 4.54688C52.8411 4.00521 52.8932 3.51042 52.9453 3.0625C53.0078 2.61458 53.0703 2.18229 53.1328 1.76562C53.1536 1.70312 53.2057 1.65104 53.2891 1.60938C53.3724 1.56771 53.4505 1.53125 53.5234 1.5C53.5755 1.44792 53.6016 1.40104 53.6016 1.35938C53.612 1.30729 53.6589 1.27083 53.7422 1.25C53.7839 1.23958 53.8411 1.22917 53.9141 1.21875C53.987 1.19792 54.0599 1.19792 54.1328 1.21875C54.2161 1.22917 54.2891 1.25521 54.3516 1.29688C54.4245 1.33854 54.4766 1.40625 54.5078 1.5C54.5391 1.57292 54.6016 1.625 54.6953 1.65625C54.7891 1.6875 54.8672 1.73438 54.9297 1.79688C54.9609 1.84896 54.987 1.90625 55.0078 1.96875C55.0391 2.03125 55.0443 2.11979 55.0234 2.23438Z" fill="#543B25"/>
<path d="M62.9141 22.2812C62.9245 22.4271 62.8828 22.5729 62.7891 22.7188C62.7057 22.8542 62.6016 22.9792 62.4766 23.0938C62.362 23.2083 62.2422 23.2969 62.1172 23.3594C62.0026 23.4323 61.9141 23.474 61.8516 23.4844C61.7057 23.5052 61.5443 23.4896 61.3672 23.4375C61.1901 23.3854 61.0547 23.3177 60.9609 23.2344C60.888 23.1719 60.8359 23.099 60.8047 23.0156C60.7839 22.9219 60.7578 22.7917 60.7266 22.625C60.6745 22.3854 60.6224 22.1927 60.5703 22.0469C60.5286 21.8906 60.4922 21.7604 60.4609 21.6562C60.4297 21.5417 60.3984 21.4375 60.3672 21.3438C60.3464 21.25 60.3307 21.1354 60.3203 21C60.2057 19.7292 60.138 18.4635 60.1172 17.2031C60.0964 15.9323 60.1068 14.7135 60.1484 13.5469C60.1901 12.3802 60.2526 11.2969 60.3359 10.2969C60.4297 9.28646 60.5182 8.41146 60.6016 7.67188C60.6953 6.92188 60.7786 6.32812 60.8516 5.89062C60.9245 5.45312 60.9714 5.21875 60.9922 5.1875C61.0234 5.10417 61.112 5.02604 61.2578 4.95312C61.4141 4.88021 61.5911 4.82812 61.7891 4.79688C61.9349 4.77604 62.0443 4.75521 62.1172 4.73438C62.1901 4.71354 62.2526 4.69271 62.3047 4.67188C62.3568 4.64062 62.4141 4.61458 62.4766 4.59375C62.5495 4.5625 62.6589 4.52604 62.8047 4.48438C62.9297 4.45312 63.0026 4.51562 63.0234 4.67188C63.0443 4.82812 63.0391 5.11458 63.0078 5.53125C62.9766 5.94792 62.9297 6.51562 62.8672 7.23438C62.8151 7.95312 62.7734 8.85938 62.7422 9.95312C62.8568 9.97396 62.9818 9.98438 63.1172 9.98438C63.263 9.98438 63.4193 9.98438 63.5859 9.98438C64.138 9.98438 64.7786 9.92708 65.5078 9.8125C66.237 9.69792 66.9661 9.49479 67.6953 9.20312C68.4349 8.90104 69.1328 8.49479 69.7891 7.98438C70.4453 7.46354 70.9766 6.80729 71.3828 6.01562C71.4453 5.85938 71.4766 5.67708 71.4766 5.46875C71.4766 5.17708 71.3776 4.89062 71.1797 4.60938C70.9922 4.31771 70.6901 4.0625 70.2734 3.84375C69.8568 3.61458 69.3151 3.43229 68.6484 3.29688C67.9818 3.15104 67.1797 3.07812 66.2422 3.07812C65.6901 3.07812 65.1172 3.11979 64.5234 3.20312C63.9297 3.28646 63.3255 3.42188 62.7109 3.60938C62.0964 3.79688 61.4766 4.04167 60.8516 4.34375C60.2266 4.64583 59.612 5.02083 59.0078 5.46875C58.9766 5.5 58.9193 5.52604 58.8359 5.54688C58.7526 5.55729 58.6693 5.5625 58.5859 5.5625C58.4297 5.5625 58.2786 5.50521 58.1328 5.39062C57.987 5.27604 57.9141 5.15625 57.9141 5.03125C57.9141 4.96875 57.9349 4.91667 57.9766 4.875C58.0182 4.82292 58.0651 4.77604 58.1172 4.73438C58.1797 4.69271 58.2318 4.65625 58.2734 4.625C58.3151 4.59375 58.3359 4.56771 58.3359 4.54688C58.3359 4.51562 58.3151 4.47396 58.2734 4.42188C58.2318 4.36979 58.2109 4.30208 58.2109 4.21875C58.2109 4.20833 58.1849 4.19792 58.1328 4.1875C58.0807 4.17708 58.0182 4.16146 57.9453 4.14062C57.8828 4.11979 57.8255 4.08854 57.7734 4.04688C57.7214 3.99479 57.6953 3.92708 57.6953 3.84375C57.6953 3.78125 57.7266 3.72917 57.7891 3.6875C57.862 3.64583 57.9453 3.58854 58.0391 3.51562C58.1641 3.44271 58.3828 3.30208 58.6953 3.09375C59.0078 2.88542 59.3828 2.65104 59.8203 2.39062C60.2682 2.13021 60.763 1.85938 61.3047 1.57812C61.8464 1.29688 62.4141 1.04167 63.0078 0.8125C63.612 0.572917 64.2266 0.380208 64.8516 0.234375C65.4766 0.078125 66.0859 0 66.6797 0C67.2839 0 67.862 0.104167 68.4141 0.3125C68.9661 0.520833 69.4818 0.796875 69.9609 1.14062C70.4401 1.48438 70.8724 1.88542 71.2578 2.34375C71.6432 2.79167 71.9714 3.26562 72.2422 3.76562C72.5234 4.25521 72.737 4.75521 72.8828 5.26562C73.0391 5.76562 73.1172 6.23958 73.1172 6.6875C73.1172 7.20833 72.9453 7.70833 72.6016 8.1875C72.2682 8.66667 71.8359 9.11458 71.3047 9.53125C70.7839 9.94792 70.2109 10.3281 69.5859 10.6719C68.9609 11.0052 68.3672 11.2969 67.8047 11.5469C67.2734 11.776 66.7266 11.9427 66.1641 12.0469C65.612 12.1406 65.1016 12.1979 64.6328 12.2188C65.1536 12.4167 65.7005 12.6875 66.2734 13.0312C66.8568 13.375 67.4297 13.8542 67.9922 14.4688C68.2734 14.7812 68.5495 15.2031 68.8203 15.7344C69.0911 16.2552 69.362 16.8333 69.6328 17.4688C69.9036 18.1042 70.1745 18.776 70.4453 19.4844C70.7266 20.1927 71.0182 20.8958 71.3203 21.5938C71.6328 22.2812 71.9609 22.9375 72.3047 23.5625C72.6589 24.1979 73.0339 24.7552 73.4297 25.2344C73.8359 25.7135 74.2682 26.0938 74.7266 26.375C75.1953 26.6667 75.7057 26.8125 76.2578 26.8125C76.7578 26.8125 77.2995 26.6823 77.8828 26.4219C78.4766 26.1719 79.1172 25.7396 79.8047 25.125C80.0651 24.9167 80.2318 24.75 80.3047 24.625C80.388 24.5104 80.4453 24.4531 80.4766 24.4531C80.5078 24.4531 80.5286 24.474 80.5391 24.5156C80.5599 24.5573 80.5703 24.599 80.5703 24.6406C80.5807 24.6927 80.5859 24.7396 80.5859 24.7812C80.5859 24.8229 80.5911 24.849 80.6016 24.8594V24.8906C80.6016 24.9427 80.5807 24.9896 80.5391 25.0312C80.5703 25.0312 80.5911 25.0469 80.6016 25.0781C80.6224 25.1198 80.6328 25.1667 80.6328 25.2188C80.6328 25.3021 80.612 25.3854 80.5703 25.4688C80.4974 25.5729 80.4089 25.7552 80.3047 26.0156C80.2005 26.2865 80.0599 26.5885 79.8828 26.9219C79.7161 27.2552 79.5078 27.599 79.2578 27.9531C79.0078 28.3177 78.7005 28.651 78.3359 28.9531C77.9818 29.2552 77.5547 29.5 77.0547 29.6875C76.5547 29.8854 75.9766 29.9844 75.3203 29.9844C74.9245 29.9844 74.513 29.9323 74.0859 29.8281C73.6693 29.724 73.2474 29.5417 72.8203 29.2812C72.4036 29.0312 71.987 28.6979 71.5703 28.2812C71.1536 27.8646 70.7526 27.3438 70.3672 26.7188C70.1693 26.4167 69.9609 25.9427 69.7422 25.2969C69.5339 24.651 69.3099 23.9219 69.0703 23.1094C68.8411 22.2865 68.5964 21.4219 68.3359 20.5156C68.0755 19.6094 67.7943 18.7396 67.4922 17.9062C67.1901 17.0729 66.862 16.3229 66.5078 15.6562C66.1641 14.9792 65.7943 14.4635 65.3984 14.1094C65.1797 13.9219 64.9557 13.7396 64.7266 13.5625C64.4974 13.3854 64.2682 13.2344 64.0391 13.1094C63.8203 12.974 63.6016 12.8698 63.3828 12.7969C63.1641 12.7135 62.9609 12.6719 62.7734 12.6719H62.7109C62.7109 13.2344 62.7109 13.8333 62.7109 14.4688C62.7214 15.1042 62.7266 15.7448 62.7266 16.3906C62.737 17.026 62.7474 17.651 62.7578 18.2656C62.7682 18.8802 62.7786 19.4531 62.7891 19.9844C62.8099 20.5052 62.8307 20.9688 62.8516 21.375C62.8724 21.7708 62.8932 22.0729 62.9141 22.2812Z" fill="#543B25"/>
<path d="M17.2734 53.0625C17.3255 53.1354 17.3568 53.1875 17.3672 53.2188C17.3776 53.25 17.3724 53.276 17.3516 53.2969C17.3411 53.3073 17.3203 53.3177 17.2891 53.3281C17.2578 53.3385 17.2318 53.3542 17.2109 53.375C17.1589 53.4062 17.1432 53.4375 17.1641 53.4688C17.1953 53.5 17.1797 53.5573 17.1172 53.6406C17.0755 53.6719 17.0703 53.7083 17.1016 53.75C17.1328 53.7812 17.138 53.8073 17.1172 53.8281C16.9609 54.0677 16.8411 54.2188 16.7578 54.2812C16.6745 54.2812 16.6016 54.2917 16.5391 54.3125C16.5078 54.3229 16.487 54.3333 16.4766 54.3438C16.4453 54.375 16.4141 54.4167 16.3828 54.4688C16.3516 54.5104 16.3255 54.5521 16.3047 54.5938C16.2839 54.625 16.2578 54.651 16.2266 54.6719C16.2057 54.6823 16.1797 54.6667 16.1484 54.625C16.1172 54.5729 16.0755 54.5469 16.0234 54.5469C15.9818 54.5469 15.9505 54.5625 15.9297 54.5938C15.9089 54.6146 15.8828 54.6406 15.8516 54.6719C15.8203 54.6927 15.7995 54.7188 15.7891 54.75C15.7891 54.7708 15.8047 54.7969 15.8359 54.8281C15.8672 54.849 15.9401 54.875 16.0547 54.9062C16.3151 54.9792 16.362 55.0521 16.1953 55.125C16.0391 55.1875 15.737 55.2031 15.2891 55.1719C14.862 55.1406 14.4557 55.1146 14.0703 55.0938C13.6849 55.0625 13.2995 55.0417 12.9141 55.0312C12.5391 55.0104 12.1536 54.9948 11.7578 54.9844C11.362 54.974 10.9401 54.974 10.4922 54.9844C9.89844 54.9948 9.26823 55.0208 8.60156 55.0625C7.94531 55.1042 7.28906 55.151 6.63281 55.2031C5.98698 55.2552 5.36198 55.3073 4.75781 55.3594C4.16406 55.4219 3.6276 55.4792 3.14844 55.5312C2.66927 55.5833 2.26302 55.6302 1.92969 55.6719C1.60677 55.724 1.39844 55.7604 1.30469 55.7812C1.21094 55.8125 1.14323 55.8229 1.10156 55.8125C1.07031 55.8125 1.04427 55.7865 1.02344 55.7344C1.01302 55.6823 1.0026 55.6042 0.992188 55.5C0.981771 55.3958 0.955729 55.2552 0.914062 55.0781C0.882812 54.974 0.835938 54.8698 0.773438 54.7656C0.721354 54.651 0.684896 54.5625 0.664062 54.5C0.632812 54.3333 0.622396 54.2188 0.632812 54.1562C0.643229 54.0833 0.705729 54.0365 0.820312 54.0156L2.74219 53.5C2.6276 52.7812 2.54427 51.9427 2.49219 50.9844C2.45052 50.0156 2.42969 48.9688 2.42969 47.8438C2.42969 46.875 2.45052 45.8854 2.49219 44.875C2.53385 43.8542 2.59635 42.8281 2.67969 41.7969C2.88802 39.1927 3.0599 37.1979 3.19531 35.8125C3.34115 34.4167 3.47656 33.6042 3.60156 33.375C3.63281 33.3229 3.65885 33.276 3.67969 33.2344C3.70052 33.1823 3.73177 33.1562 3.77344 33.1562C3.83594 33.125 3.88281 33.1302 3.91406 33.1719C3.94531 33.2135 4.0026 33.2188 4.08594 33.1875C4.10677 33.1875 4.1224 33.1771 4.13281 33.1562C4.15365 33.125 4.17969 33.0938 4.21094 33.0625L4.24219 33.0469C4.26302 33.026 4.30469 33 4.36719 32.9688C4.52344 33.0208 4.63802 33.0677 4.71094 33.1094C4.7526 33.1302 4.77865 33.1458 4.78906 33.1562C4.85156 33.1875 4.91406 33.2448 4.97656 33.3281C5.03906 33.401 5.09635 33.4062 5.14844 33.3438L5.17969 33.3125C5.20052 33.2917 5.23177 33.2812 5.27344 33.2812C5.30469 33.3021 5.33594 33.3229 5.36719 33.3438C5.39844 33.3646 5.42448 33.3854 5.44531 33.4062C5.47656 33.4375 5.5026 33.4583 5.52344 33.4688C5.57552 33.5 5.6224 33.5417 5.66406 33.5938C5.70573 33.6458 5.7474 33.7448 5.78906 33.8906C5.83073 34.0781 5.83594 34.4635 5.80469 35.0469C5.78385 35.6302 5.74219 36.349 5.67969 37.2031C5.6276 38.0573 5.57031 39.0156 5.50781 40.0781C5.44531 41.1406 5.40885 42.2448 5.39844 43.3906C5.38802 43.9219 5.3724 44.4948 5.35156 45.1094C5.33073 45.7135 5.3099 46.3385 5.28906 46.9844C5.26823 47.6198 5.2474 48.25 5.22656 48.875C5.21615 49.5 5.21094 50.0938 5.21094 50.6562C5.21094 51.1042 5.21094 51.526 5.21094 51.9219C5.22135 52.3073 5.2526 52.6406 5.30469 52.9219C6.4401 52.6823 7.71094 52.4688 9.11719 52.2812C10.5339 52.0938 12.0443 52 13.6484 52C14.2318 52 14.7161 52.0312 15.1016 52.0938C15.4974 52.1458 15.8255 52.224 16.0859 52.3281C16.1484 52.349 16.237 52.3906 16.3516 52.4531C16.4661 52.5052 16.5859 52.5677 16.7109 52.6406C16.8359 52.7135 16.9505 52.7865 17.0547 52.8594C17.1589 52.9323 17.2318 53 17.2734 53.0625Z" fill="#543B25"/>
<path d="M22.8203 33.4375C22.8203 35.3229 22.7839 37.2396 22.7109 39.1875C22.638 41.125 22.5859 43.0521 22.5547 44.9688C22.5443 45.8438 22.5495 46.7135 22.5703 47.5781C22.6016 48.4323 22.6328 49.25 22.6641 50.0312C22.7057 50.8021 22.7422 51.5104 22.7734 52.1562C22.8047 52.7917 22.8203 53.3281 22.8203 53.7656C22.8203 54.0677 22.8099 54.3125 22.7891 54.5C22.7682 54.6771 22.7318 54.7812 22.6797 54.8125C22.6276 54.8646 22.5807 54.8958 22.5391 54.9062C22.4974 54.9167 22.4557 54.9219 22.4141 54.9219C22.3724 54.9219 22.3255 54.9219 22.2734 54.9219C22.2318 54.9115 22.1797 54.9219 22.1172 54.9531C22.0443 54.9844 21.9974 55.0208 21.9766 55.0625C21.9557 55.0938 21.9349 55.1302 21.9141 55.1719C21.8932 55.2135 21.862 55.2552 21.8203 55.2969C21.7786 55.3385 21.7057 55.3802 21.6016 55.4219C21.4661 55.4531 21.3359 55.4167 21.2109 55.3125C21.0964 55.2188 20.9818 55.1406 20.8672 55.0781C20.6901 54.974 20.5443 54.8906 20.4297 54.8281C20.3255 54.7552 20.2266 54.6458 20.1328 54.5C20.0599 54.375 19.9974 54.1875 19.9453 53.9375C19.8932 53.6771 19.8516 53.375 19.8203 53.0312C19.7891 52.6771 19.7682 52.2865 19.7578 51.8594C19.7474 51.4323 19.7422 50.9896 19.7422 50.5312C19.7422 50.0104 19.7474 49.4896 19.7578 48.9688C19.7682 48.4375 19.7786 47.9323 19.7891 47.4531C19.8099 46.974 19.8255 46.5417 19.8359 46.1562C19.8464 45.7708 19.8568 45.4583 19.8672 45.2188C19.888 44.4688 19.9141 43.6823 19.9453 42.8594C19.987 42.0365 20.0234 41.2188 20.0547 40.4062C20.0964 39.5833 20.138 38.7917 20.1797 38.0312C20.2214 37.2708 20.263 36.5781 20.3047 35.9531C20.3464 35.3177 20.3828 34.7812 20.4141 34.3438C20.4557 33.8958 20.4974 33.5833 20.5391 33.4062C20.6016 33.1875 20.7109 33.0625 20.8672 33.0312C20.9401 33 20.9974 33.0052 21.0391 33.0469C21.0911 33.0885 21.1484 33.0625 21.2109 32.9688C21.2318 32.9167 21.263 32.8854 21.3047 32.875C21.3464 32.8646 21.388 32.8594 21.4297 32.8594C21.4714 32.8594 21.513 32.8594 21.5547 32.8594C21.5964 32.8594 21.6328 32.849 21.6641 32.8281C21.7266 32.7656 21.7891 32.7552 21.8516 32.7969C21.9245 32.8281 21.9766 32.8594 22.0078 32.8906C22.0391 32.9635 22.0807 33.0208 22.1328 33.0625C22.1849 33.0938 22.2422 33.0833 22.3047 33.0312C22.3359 33 22.3776 32.9844 22.4297 32.9844C22.4922 32.9844 22.5339 33.0104 22.5547 33.0625C22.5859 33.1146 22.638 33.1667 22.7109 33.2188C22.7839 33.2708 22.8203 33.3438 22.8203 33.4375Z" fill="#543B25"/>
<path d="M30.5234 36.4219C30.5234 36.6719 30.5182 36.9948 30.5078 37.3906C30.4974 37.776 30.4818 38.2188 30.4609 38.7188C30.4505 39.2188 30.4349 39.7604 30.4141 40.3438C30.3932 40.9167 30.3776 41.5156 30.3672 42.1406C30.6693 41.9635 31.0286 41.7917 31.4453 41.625C31.8724 41.4479 32.3151 41.2604 32.7734 41.0625C33.2422 40.8646 33.7057 40.651 34.1641 40.4219C34.6328 40.1927 35.0599 39.9375 35.4453 39.6562C36.3932 38.9375 37.1016 38.2865 37.5703 37.7031C38.0495 37.1094 38.2891 36.5625 38.2891 36.0625C38.2891 35.8542 38.2526 35.6771 38.1797 35.5312C38.1172 35.3854 38.0391 35.2552 37.9453 35.1406C37.7057 35.0052 37.3464 34.8906 36.8672 34.7969C36.3984 34.7031 35.8203 34.6562 35.1328 34.6562C34.487 34.6562 33.8359 34.7083 33.1797 34.8125C32.5339 34.9062 31.9089 35.0312 31.3047 35.1875C30.7005 35.3333 30.1328 35.4948 29.6016 35.6719C29.0807 35.849 28.6172 36.0156 28.2109 36.1719C27.8047 36.3281 27.4766 36.4688 27.2266 36.5938C26.9766 36.7083 26.8255 36.776 26.7734 36.7969C26.7214 36.8177 26.6589 36.8542 26.5859 36.9062C26.5234 36.9479 26.4609 36.9688 26.3984 36.9688C26.263 36.9688 26.1693 36.9167 26.1172 36.8125C26.0651 36.7083 26.0495 36.599 26.0703 36.4844C25.987 36.4531 25.9193 36.3958 25.8672 36.3125C25.8151 36.2188 25.7734 36.1198 25.7422 36.0156C25.7109 35.9115 25.6901 35.8125 25.6797 35.7188C25.6693 35.6146 25.6641 35.5365 25.6641 35.4844C25.6641 35.276 25.7526 35.0938 25.9297 34.9375C26.1172 34.7708 26.3568 34.625 26.6484 34.5C26.7214 34.4688 26.8776 34.3958 27.1172 34.2812C27.3672 34.1667 27.6797 34.0365 28.0547 33.8906C28.4401 33.7344 28.8724 33.5729 29.3516 33.4062C29.8307 33.2396 30.3411 33.0885 30.8828 32.9531C31.4245 32.8073 31.9818 32.6875 32.5547 32.5938C33.1276 32.5 33.6953 32.4531 34.2578 32.4531C34.6641 32.4635 35.0964 32.4896 35.5547 32.5312C36.013 32.5625 36.4661 32.6354 36.9141 32.75C37.362 32.8646 37.7786 33.026 38.1641 33.2344C38.5599 33.4427 38.8932 33.724 39.1641 34.0781C39.4557 34.3073 39.7109 34.6198 39.9297 35.0156C40.1589 35.401 40.2734 35.8698 40.2734 36.4219C40.2734 36.8073 40.237 37.1562 40.1641 37.4688C40.1016 37.7708 40.0443 37.9844 39.9922 38.1094C39.7214 38.7865 39.3724 39.3698 38.9453 39.8594C38.5286 40.349 38.0755 40.7708 37.5859 41.125C37.1068 41.4688 36.6224 41.7604 36.1328 42C35.6432 42.2396 35.2005 42.4375 34.8047 42.5938C35.2422 42.5938 35.6901 42.6146 36.1484 42.6562C36.6172 42.6979 37.0755 42.776 37.5234 42.8906C37.9818 42.9948 38.4193 43.151 38.8359 43.3594C39.2526 43.5677 39.638 43.8333 39.9922 44.1562C40.2214 44.4062 40.4297 44.6771 40.6172 44.9688C40.7734 45.2188 40.9141 45.5156 41.0391 45.8594C41.1745 46.1927 41.2422 46.5573 41.2422 46.9531C41.3047 47.2031 41.3359 47.4896 41.3359 47.8125C41.3359 48.1771 41.3047 48.5833 41.2422 49.0312C41.1901 49.4271 41.0599 49.8906 40.8516 50.4219C40.6432 50.9531 40.3203 51.5 39.8828 52.0625C39.4453 52.625 38.8724 53.1771 38.1641 53.7188C37.4661 54.25 36.5911 54.7135 35.5391 55.1094C34.8828 55.3698 34.2839 55.5573 33.7422 55.6719C33.2005 55.7865 32.7109 55.8438 32.2734 55.8438C32.0651 55.8438 31.8359 55.8229 31.5859 55.7812C31.3464 55.7396 31.1172 55.6771 30.8984 55.5938C30.6901 55.5208 30.513 55.4271 30.3672 55.3125C30.2318 55.1979 30.1641 55.0625 30.1641 54.9062C30.1641 54.8229 30.138 54.7656 30.0859 54.7344C30.0339 54.6927 29.9766 54.6458 29.9141 54.5938C29.862 54.7708 29.7995 54.9115 29.7266 55.0156C29.6641 55.1198 29.5964 55.2031 29.5234 55.2656C29.4401 55.3385 29.3568 55.3906 29.2734 55.4219C29.2318 55.4219 29.1953 55.4115 29.1641 55.3906C29.1016 55.3802 29.0547 55.3385 29.0234 55.2656C28.9818 55.349 28.9245 55.4323 28.8516 55.5156C28.7891 55.6094 28.7266 55.6562 28.6641 55.6562C28.6328 55.6562 28.5859 55.651 28.5234 55.6406C28.4714 55.6406 28.4141 55.5729 28.3516 55.4375C28.2995 55.3021 28.2422 55.0729 28.1797 54.75C28.1276 54.4167 28.0755 53.9219 28.0234 53.2656C27.9818 52.599 27.9453 51.7396 27.9141 50.6875C27.8828 49.6354 27.8672 48.3229 27.8672 46.75C27.8672 46.1146 27.8672 45.4479 27.8672 44.75C27.8672 44.0417 27.8724 43.349 27.8828 42.6719C27.8932 41.9844 27.9089 41.3281 27.9297 40.7031C27.9609 40.0677 27.9974 39.4948 28.0391 38.9844C28.0911 38.4635 28.1536 38.0312 28.2266 37.6875C28.2995 37.3333 28.3932 37.0938 28.5078 36.9688C28.5911 36.8646 28.737 36.7656 28.9453 36.6719C29.1641 36.5781 29.3776 36.4948 29.5859 36.4219C29.7943 36.3385 29.9766 36.276 30.1328 36.2344C30.2891 36.1823 30.3568 36.1458 30.3359 36.125C30.388 36.1458 30.4297 36.1823 30.4609 36.2344C30.5026 36.276 30.5234 36.3385 30.5234 36.4219ZM31.0703 44.4844C30.9974 44.4844 30.888 44.4427 30.7422 44.3594C30.6068 44.276 30.4557 44.1771 30.2891 44.0625C30.2578 44.9375 30.2266 45.8125 30.1953 46.6875C30.1641 47.5625 30.1328 48.3958 30.1016 49.1875C30.0703 49.9688 30.0443 50.6927 30.0234 51.3594C30.013 52.026 30.0078 52.5833 30.0078 53.0312C30.1328 52.8333 30.2682 52.6458 30.4141 52.4688C30.5599 52.2812 30.7005 52.1198 30.8359 51.9844C30.9818 51.8385 31.112 51.724 31.2266 51.6406C31.3516 51.5573 31.4453 51.5156 31.5078 51.5156C31.5286 51.5156 31.5495 51.5208 31.5703 51.5312C31.5911 51.5417 31.638 51.5833 31.7109 51.6562C31.7318 51.6562 31.7526 51.651 31.7734 51.6406C31.7943 51.6302 31.8151 51.625 31.8359 51.625C31.9193 51.625 31.9818 51.6615 32.0234 51.7344C32.0651 51.8073 32.0859 51.9479 32.0859 52.1562C32.0859 52.2708 32.0547 52.3698 31.9922 52.4531C31.9297 52.5365 31.8568 52.6146 31.7734 52.6875C31.7005 52.75 31.6224 52.8125 31.5391 52.875C31.4661 52.9375 31.4141 53 31.3828 53.0625C31.4661 53.0833 31.5495 53.099 31.6328 53.1094C31.7161 53.1198 31.8464 53.125 32.0234 53.125C32.1172 53.1146 32.3047 53.099 32.5859 53.0781C32.8776 53.0469 33.2474 52.9688 33.6953 52.8438C34.1432 52.7083 34.6589 52.5 35.2422 52.2188C35.8359 51.9375 36.4818 51.5365 37.1797 51.0156C37.7734 50.5677 38.2526 50.1094 38.6172 49.6406C38.9818 49.1719 39.2578 48.7344 39.4453 48.3281C39.6432 47.9115 39.7734 47.5469 39.8359 47.2344C39.8984 46.9219 39.9297 46.6979 39.9297 46.5625C39.888 46.1771 39.7214 45.8281 39.4297 45.5156C39.1484 45.1927 38.7682 44.9167 38.2891 44.6875C37.8203 44.4583 37.2682 44.2812 36.6328 44.1562C35.9974 44.0312 35.3151 43.9688 34.5859 43.9688C34.0964 43.9688 33.6641 43.9948 33.2891 44.0469C32.9141 44.099 32.5807 44.1615 32.2891 44.2344C32.0078 44.2969 31.7682 44.3542 31.5703 44.4062C31.3724 44.4583 31.2057 44.4844 31.0703 44.4844Z" fill="#543B25"/>
<path d="M48.3516 54.2812C48.362 54.4271 48.3203 54.5729 48.2266 54.7188C48.1432 54.8542 48.0391 54.9792 47.9141 55.0938C47.7995 55.2083 47.6797 55.2969 47.5547 55.3594C47.4401 55.4323 47.3516 55.474 47.2891 55.4844C47.1432 55.5052 46.9818 55.4896 46.8047 55.4375C46.6276 55.3854 46.4922 55.3177 46.3984 55.2344C46.3255 55.1719 46.2734 55.099 46.2422 55.0156C46.2214 54.9219 46.1953 54.7917 46.1641 54.625C46.112 54.3854 46.0599 54.1927 46.0078 54.0469C45.9661 53.8906 45.9297 53.7604 45.8984 53.6562C45.8672 53.5417 45.8359 53.4375 45.8047 53.3438C45.7839 53.25 45.7682 53.1354 45.7578 53C45.6432 51.7292 45.5755 50.4635 45.5547 49.2031C45.5339 47.9323 45.5443 46.7135 45.5859 45.5469C45.6276 44.3802 45.6901 43.2969 45.7734 42.2969C45.8672 41.2865 45.9557 40.4115 46.0391 39.6719C46.1328 38.9219 46.2161 38.3281 46.2891 37.8906C46.362 37.4531 46.4089 37.2188 46.4297 37.1875C46.4609 37.1042 46.5495 37.026 46.6953 36.9531C46.8516 36.8802 47.0286 36.8281 47.2266 36.7969C47.3724 36.776 47.4818 36.7552 47.5547 36.7344C47.6276 36.7135 47.6901 36.6927 47.7422 36.6719C47.7943 36.6406 47.8516 36.6146 47.9141 36.5938C47.987 36.5625 48.0964 36.526 48.2422 36.4844C48.3672 36.4531 48.4401 36.5156 48.4609 36.6719C48.4818 36.8281 48.4766 37.1146 48.4453 37.5312C48.4141 37.9479 48.3672 38.5156 48.3047 39.2344C48.2526 39.9531 48.2109 40.8594 48.1797 41.9531C48.2943 41.974 48.4193 41.9844 48.5547 41.9844C48.7005 41.9844 48.8568 41.9844 49.0234 41.9844C49.5755 41.9844 50.2161 41.9271 50.9453 41.8125C51.6745 41.6979 52.4036 41.4948 53.1328 41.2031C53.8724 40.901 54.5703 40.4948 55.2266 39.9844C55.8828 39.4635 56.4141 38.8073 56.8203 38.0156C56.8828 37.8594 56.9141 37.6771 56.9141 37.4688C56.9141 37.1771 56.8151 36.8906 56.6172 36.6094C56.4297 36.3177 56.1276 36.0625 55.7109 35.8438C55.2943 35.6146 54.7526 35.4323 54.0859 35.2969C53.4193 35.151 52.6172 35.0781 51.6797 35.0781C51.1276 35.0781 50.5547 35.1198 49.9609 35.2031C49.3672 35.2865 48.763 35.4219 48.1484 35.6094C47.5339 35.7969 46.9141 36.0417 46.2891 36.3438C45.6641 36.6458 45.0495 37.0208 44.4453 37.4688C44.4141 37.5 44.3568 37.526 44.2734 37.5469C44.1901 37.5573 44.1068 37.5625 44.0234 37.5625C43.8672 37.5625 43.7161 37.5052 43.5703 37.3906C43.4245 37.276 43.3516 37.1562 43.3516 37.0312C43.3516 36.9688 43.3724 36.9167 43.4141 36.875C43.4557 36.8229 43.5026 36.776 43.5547 36.7344C43.6172 36.6927 43.6693 36.6562 43.7109 36.625C43.7526 36.5938 43.7734 36.5677 43.7734 36.5469C43.7734 36.5156 43.7526 36.474 43.7109 36.4219C43.6693 36.3698 43.6484 36.3021 43.6484 36.2188C43.6484 36.2083 43.6224 36.1979 43.5703 36.1875C43.5182 36.1771 43.4557 36.1615 43.3828 36.1406C43.3203 36.1198 43.263 36.0885 43.2109 36.0469C43.1589 35.9948 43.1328 35.9271 43.1328 35.8438C43.1328 35.7812 43.1641 35.7292 43.2266 35.6875C43.2995 35.6458 43.3828 35.5885 43.4766 35.5156C43.6016 35.4427 43.8203 35.3021 44.1328 35.0938C44.4453 34.8854 44.8203 34.651 45.2578 34.3906C45.7057 34.1302 46.2005 33.8594 46.7422 33.5781C47.2839 33.2969 47.8516 33.0417 48.4453 32.8125C49.0495 32.5729 49.6641 32.3802 50.2891 32.2344C50.9141 32.0781 51.5234 32 52.1172 32C52.7214 32 53.2995 32.1042 53.8516 32.3125C54.4036 32.5208 54.9193 32.7969 55.3984 33.1406C55.8776 33.4844 56.3099 33.8854 56.6953 34.3438C57.0807 34.7917 57.4089 35.2656 57.6797 35.7656C57.9609 36.2552 58.1745 36.7552 58.3203 37.2656C58.4766 37.7656 58.5547 38.2396 58.5547 38.6875C58.5547 39.2083 58.3828 39.7083 58.0391 40.1875C57.7057 40.6667 57.2734 41.1146 56.7422 41.5312C56.2214 41.9479 55.6484 42.3281 55.0234 42.6719C54.3984 43.0052 53.8047 43.2969 53.2422 43.5469C52.7109 43.776 52.1641 43.9427 51.6016 44.0469C51.0495 44.1406 50.5391 44.1979 50.0703 44.2188C50.5911 44.4167 51.138 44.6875 51.7109 45.0312C52.2943 45.375 52.8672 45.8542 53.4297 46.4688C53.7109 46.7812 53.987 47.2031 54.2578 47.7344C54.5286 48.2552 54.7995 48.8333 55.0703 49.4688C55.3411 50.1042 55.612 50.776 55.8828 51.4844C56.1641 52.1927 56.4557 52.8958 56.7578 53.5938C57.0703 54.2812 57.3984 54.9375 57.7422 55.5625C58.0964 56.1979 58.4714 56.7552 58.8672 57.2344C59.2734 57.7135 59.7057 58.0938 60.1641 58.375C60.6328 58.6667 61.1432 58.8125 61.6953 58.8125C62.1953 58.8125 62.737 58.6823 63.3203 58.4219C63.9141 58.1719 64.5547 57.7396 65.2422 57.125C65.5026 56.9167 65.6693 56.75 65.7422 56.625C65.8255 56.5104 65.8828 56.4531 65.9141 56.4531C65.9453 56.4531 65.9661 56.474 65.9766 56.5156C65.9974 56.5573 66.0078 56.599 66.0078 56.6406C66.0182 56.6927 66.0234 56.7396 66.0234 56.7812C66.0234 56.8229 66.0286 56.849 66.0391 56.8594V56.8906C66.0391 56.9427 66.0182 56.9896 65.9766 57.0312C66.0078 57.0312 66.0286 57.0469 66.0391 57.0781C66.0599 57.1198 66.0703 57.1667 66.0703 57.2188C66.0703 57.3021 66.0495 57.3854 66.0078 57.4688C65.9349 57.5729 65.8464 57.7552 65.7422 58.0156C65.638 58.2865 65.4974 58.5885 65.3203 58.9219C65.1536 59.2552 64.9453 59.599 64.6953 59.9531C64.4453 60.3177 64.138 60.651 63.7734 60.9531C63.4193 61.2552 62.9922 61.5 62.4922 61.6875C61.9922 61.8854 61.4141 61.9844 60.7578 61.9844C60.362 61.9844 59.9505 61.9323 59.5234 61.8281C59.1068 61.724 58.6849 61.5417 58.2578 61.2812C57.8411 61.0312 57.4245 60.6979 57.0078 60.2812C56.5911 59.8646 56.1901 59.3438 55.8047 58.7188C55.6068 58.4167 55.3984 57.9427 55.1797 57.2969C54.9714 56.651 54.7474 55.9219 54.5078 55.1094C54.2786 54.2865 54.0339 53.4219 53.7734 52.5156C53.513 51.6094 53.2318 50.7396 52.9297 49.9062C52.6276 49.0729 52.2995 48.3229 51.9453 47.6562C51.6016 46.9792 51.2318 46.4635 50.8359 46.1094C50.6172 45.9219 50.3932 45.7396 50.1641 45.5625C49.9349 45.3854 49.7057 45.2344 49.4766 45.1094C49.2578 44.974 49.0391 44.8698 48.8203 44.7969C48.6016 44.7135 48.3984 44.6719 48.2109 44.6719H48.1484C48.1484 45.2344 48.1484 45.8333 48.1484 46.4688C48.1589 47.1042 48.1641 47.7448 48.1641 48.3906C48.1745 49.026 48.1849 49.651 48.1953 50.2656C48.2057 50.8802 48.2161 51.4531 48.2266 51.9844C48.2474 52.5052 48.2682 52.9688 48.2891 53.375C48.3099 53.7708 48.3307 54.0729 48.3516 54.2812Z" fill="#543B25"/>
<path d="M77.0234 54.8125C77.0234 54.8958 76.9714 54.9427 76.8672 54.9531C76.763 54.9531 76.6536 54.9531 76.5391 54.9531C76.487 54.9635 76.4349 54.974 76.3828 54.9844C76.3307 55.0052 76.2734 55.026 76.2109 55.0469C76.1589 55.0573 76.1068 55.0885 76.0547 55.1406C76.0755 55.2448 76.0807 55.3229 76.0703 55.375C76.0703 55.4375 76.0703 55.4844 76.0703 55.5156L76.0547 55.5781C76.0234 55.6198 75.9609 55.651 75.8672 55.6719C75.7734 55.7031 75.6745 55.7188 75.5703 55.7188C75.5495 55.7188 75.5182 55.7135 75.4766 55.7031C75.4036 55.6823 75.3307 55.6302 75.2578 55.5469C75.0807 55.4948 74.8724 55.4427 74.6328 55.3906C74.5078 55.3594 74.3724 55.3281 74.2266 55.2969C74.112 55.2656 74.013 55.1823 73.9297 55.0469C73.8464 54.9115 73.7682 54.7552 73.6953 54.5781C73.6328 54.3906 73.5703 54.2031 73.5078 54.0156C73.4557 53.8177 73.4089 53.6458 73.3672 53.5L71.8359 48.6719C71.6068 48.6719 71.3151 48.6771 70.9609 48.6875C70.6172 48.6875 70.2474 48.6927 69.8516 48.7031C69.4557 48.7031 69.0547 48.7135 68.6484 48.7344C68.2422 48.7448 67.8724 48.7552 67.5391 48.7656L64.4141 48.9219L62.5859 53.7031C62.5547 53.7552 62.5078 53.8594 62.4453 54.0156C62.3932 54.1719 62.3359 54.3385 62.2734 54.5156C62.2109 54.6823 62.1536 54.8438 62.1016 55C62.0495 55.1458 62.0182 55.2344 62.0078 55.2656C61.987 55.349 61.9245 55.401 61.8203 55.4219C61.7161 55.4427 61.6276 55.4635 61.5547 55.4844C61.4922 55.5052 61.4401 55.5625 61.3984 55.6562C61.3568 55.75 61.2943 55.8125 61.2109 55.8438C61.1276 55.8958 61.0234 55.901 60.8984 55.8594C60.7734 55.8177 60.6641 55.75 60.5703 55.6562C60.487 55.5521 60.4557 55.4219 60.4766 55.2656C60.4974 55.099 60.5078 54.9271 60.5078 54.75C60.5078 54.5729 60.5026 54.4062 60.4922 54.25C60.4922 54.0938 60.5182 53.9427 60.5703 53.7969C60.5911 53.7344 60.6536 53.5417 60.7578 53.2188C60.8724 52.8854 61.013 52.4896 61.1797 52.0312C61.3464 51.5625 61.5286 51.0573 61.7266 50.5156C61.9245 49.9635 62.1276 49.4323 62.3359 48.9219C62.1484 48.9219 62.0182 48.8698 61.9453 48.7656C61.8932 48.6823 61.8307 48.6354 61.7578 48.625C61.6849 48.6042 61.6068 48.5781 61.5234 48.5469C61.4401 48.526 61.3828 48.4792 61.3516 48.4062C61.3203 48.3333 61.3151 48.2708 61.3359 48.2188C61.3568 48.1562 61.3411 48.1042 61.2891 48.0625C61.237 48.0208 61.2109 47.9271 61.2109 47.7812C61.2109 47.7188 61.2578 47.6615 61.3516 47.6094C61.4557 47.5469 61.5807 47.4948 61.7266 47.4531C61.8724 47.4115 62.0339 47.375 62.2109 47.3438C62.3984 47.3125 62.5755 47.2865 62.7422 47.2656C62.7734 47.2656 62.8099 47.2656 62.8516 47.2656C62.9036 47.2656 62.9557 47.2552 63.0078 47.2344C63.237 46.6823 63.4974 46.0885 63.7891 45.4531C64.0807 44.8073 64.3776 44.151 64.6797 43.4844C64.9922 42.8177 65.3047 42.151 65.6172 41.4844C65.9297 40.8177 66.2266 40.1927 66.5078 39.6094C66.7891 39.0156 67.0443 38.474 67.2734 37.9844C67.513 37.4948 67.7109 37.0885 67.8672 36.7656C67.7422 36.3802 67.6276 36.026 67.5234 35.7031C67.4297 35.3802 67.3464 35.099 67.2734 34.8594C67.2005 34.6198 67.1432 34.4323 67.1016 34.2969C67.0599 34.151 67.0391 34.0677 67.0391 34.0469C67.0286 34.026 67.0286 34.0052 67.0391 33.9844C67.0599 33.9323 67.112 33.901 67.1953 33.8906C67.112 33.7344 67.0703 33.6198 67.0703 33.5469C67.0703 33.5052 67.0807 33.4792 67.1016 33.4688C67.1224 33.4479 67.1745 33.4271 67.2578 33.4062C67.3411 33.3854 67.4297 33.3698 67.5234 33.3594C67.6172 33.3385 67.7057 33.3281 67.7891 33.3281C67.8724 33.3177 67.9297 33.3125 67.9609 33.3125C67.9714 33.3125 67.9974 33.3177 68.0391 33.3281C68.1016 33.349 68.1901 33.3958 68.3047 33.4688C68.3151 33.4167 68.3255 33.3802 68.3359 33.3594C68.3568 33.3385 68.3776 33.3177 68.3984 33.2969L68.4453 33.25C68.5078 33.2188 68.5755 33.2135 68.6484 33.2344C68.7214 33.2448 68.7891 33.25 68.8516 33.25C68.9141 33.25 68.9557 33.224 68.9766 33.1719C69.0078 33.1198 69.0755 33.0938 69.1797 33.0938C69.3151 33.0938 69.4297 33.2396 69.5234 33.5312C69.5339 33.5833 69.6068 33.7812 69.7422 34.125C69.8776 34.4583 70.0495 34.901 70.2578 35.4531C70.4661 35.9948 70.7057 36.625 70.9766 37.3438C71.2578 38.0625 71.5495 38.8281 71.8516 39.6406C72.1536 40.4427 72.4557 41.276 72.7578 42.1406C73.0703 42.9948 73.3672 43.8385 73.6484 44.6719C74.2318 46.3698 74.7214 47.8021 75.1172 48.9688C75.513 50.1354 75.8307 51.0885 76.0703 51.8281C76.3203 52.5677 76.5026 53.1198 76.6172 53.4844C76.7422 53.849 76.8203 54.0677 76.8516 54.1406C76.9036 54.3073 76.9453 54.4427 76.9766 54.5469C77.0078 54.6406 77.0234 54.7292 77.0234 54.8125ZM70.2891 44.125C70.0182 43.3542 69.7214 42.4896 69.3984 41.5312C69.0859 40.5729 68.7786 39.625 68.4766 38.6875C68.2995 39.1458 68.0859 39.6979 67.8359 40.3438C67.5859 40.9896 67.3203 41.6562 67.0391 42.3438C66.7682 43.0312 66.5026 43.7031 66.2422 44.3594C65.9818 45.0156 65.7526 45.5781 65.5547 46.0469L65.1172 47.0781L67.9297 46.9062C68.1693 46.9062 68.4557 46.901 68.7891 46.8906C69.3516 46.8802 70.1641 46.8646 71.2266 46.8438L70.2891 44.125Z" fill="#543B25"/>
<path d="M83.2266 54.2812C83.237 54.4271 83.1953 54.5729 83.1016 54.7188C83.0182 54.8542 82.9141 54.9792 82.7891 55.0938C82.6745 55.2083 82.5547 55.2969 82.4297 55.3594C82.3151 55.4323 82.2266 55.474 82.1641 55.4844C82.0182 55.5052 81.8568 55.4896 81.6797 55.4375C81.5026 55.3854 81.3672 55.3177 81.2734 55.2344C81.2005 55.1719 81.1484 55.099 81.1172 55.0156C81.0964 54.9219 81.0703 54.7917 81.0391 54.625C80.987 54.3854 80.9349 54.1927 80.8828 54.0469C80.8411 53.8906 80.8047 53.7604 80.7734 53.6562C80.7422 53.5417 80.7109 53.4375 80.6797 53.3438C80.6589 53.25 80.6432 53.1354 80.6328 53C80.5182 51.7292 80.4505 50.4635 80.4297 49.2031C80.4089 47.9323 80.4193 46.7135 80.4609 45.5469C80.5026 44.3802 80.5651 43.2969 80.6484 42.2969C80.7422 41.2865 80.8307 40.4115 80.9141 39.6719C81.0078 38.9219 81.0911 38.3281 81.1641 37.8906C81.237 37.4531 81.2839 37.2188 81.3047 37.1875C81.3359 37.1042 81.4245 37.026 81.5703 36.9531C81.7266 36.8802 81.9036 36.8281 82.1016 36.7969C82.2474 36.776 82.3568 36.7552 82.4297 36.7344C82.5026 36.7135 82.5651 36.6927 82.6172 36.6719C82.6693 36.6406 82.7266 36.6146 82.7891 36.5938C82.862 36.5625 82.9714 36.526 83.1172 36.4844C83.2422 36.4531 83.3151 36.5156 83.3359 36.6719C83.3568 36.8281 83.3516 37.1146 83.3203 37.5312C83.2891 37.9479 83.2422 38.5156 83.1797 39.2344C83.1276 39.9531 83.0859 40.8594 83.0547 41.9531C83.1693 41.974 83.2943 41.9844 83.4297 41.9844C83.5755 41.9844 83.7318 41.9844 83.8984 41.9844C84.4505 41.9844 85.0911 41.9271 85.8203 41.8125C86.5495 41.6979 87.2786 41.4948 88.0078 41.2031C88.7474 40.901 89.4453 40.4948 90.1016 39.9844C90.7578 39.4635 91.2891 38.8073 91.6953 38.0156C91.7578 37.8594 91.7891 37.6771 91.7891 37.4688C91.7891 37.1771 91.6901 36.8906 91.4922 36.6094C91.3047 36.3177 91.0026 36.0625 90.5859 35.8438C90.1693 35.6146 89.6276 35.4323 88.9609 35.2969C88.2943 35.151 87.4922 35.0781 86.5547 35.0781C86.0026 35.0781 85.4297 35.1198 84.8359 35.2031C84.2422 35.2865 83.638 35.4219 83.0234 35.6094C82.4089 35.7969 81.7891 36.0417 81.1641 36.3438C80.5391 36.6458 79.9245 37.0208 79.3203 37.4688C79.2891 37.5 79.2318 37.526 79.1484 37.5469C79.0651 37.5573 78.9818 37.5625 78.8984 37.5625C78.7422 37.5625 78.5911 37.5052 78.4453 37.3906C78.2995 37.276 78.2266 37.1562 78.2266 37.0312C78.2266 36.9688 78.2474 36.9167 78.2891 36.875C78.3307 36.8229 78.3776 36.776 78.4297 36.7344C78.4922 36.6927 78.5443 36.6562 78.5859 36.625C78.6276 36.5938 78.6484 36.5677 78.6484 36.5469C78.6484 36.5156 78.6276 36.474 78.5859 36.4219C78.5443 36.3698 78.5234 36.3021 78.5234 36.2188C78.5234 36.2083 78.4974 36.1979 78.4453 36.1875C78.3932 36.1771 78.3307 36.1615 78.2578 36.1406C78.1953 36.1198 78.138 36.0885 78.0859 36.0469C78.0339 35.9948 78.0078 35.9271 78.0078 35.8438C78.0078 35.7812 78.0391 35.7292 78.1016 35.6875C78.1745 35.6458 78.2578 35.5885 78.3516 35.5156C78.4766 35.4427 78.6953 35.3021 79.0078 35.0938C79.3203 34.8854 79.6953 34.651 80.1328 34.3906C80.5807 34.1302 81.0755 33.8594 81.6172 33.5781C82.1589 33.2969 82.7266 33.0417 83.3203 32.8125C83.9245 32.5729 84.5391 32.3802 85.1641 32.2344C85.7891 32.0781 86.3984 32 86.9922 32C87.5964 32 88.1745 32.1042 88.7266 32.3125C89.2786 32.5208 89.7943 32.7969 90.2734 33.1406C90.7526 33.4844 91.1849 33.8854 91.5703 34.3438C91.9557 34.7917 92.2839 35.2656 92.5547 35.7656C92.8359 36.2552 93.0495 36.7552 93.1953 37.2656C93.3516 37.7656 93.4297 38.2396 93.4297 38.6875C93.4297 39.2083 93.2578 39.7083 92.9141 40.1875C92.5807 40.6667 92.1484 41.1146 91.6172 41.5312C91.0964 41.9479 90.5234 42.3281 89.8984 42.6719C89.2734 43.0052 88.6797 43.2969 88.1172 43.5469C87.5859 43.776 87.0391 43.9427 86.4766 44.0469C85.9245 44.1406 85.4141 44.1979 84.9453 44.2188C85.4661 44.4167 86.013 44.6875 86.5859 45.0312C87.1693 45.375 87.7422 45.8542 88.3047 46.4688C88.5859 46.7812 88.862 47.2031 89.1328 47.7344C89.4036 48.2552 89.6745 48.8333 89.9453 49.4688C90.2161 50.1042 90.487 50.776 90.7578 51.4844C91.0391 52.1927 91.3307 52.8958 91.6328 53.5938C91.9453 54.2812 92.2734 54.9375 92.6172 55.5625C92.9714 56.1979 93.3464 56.7552 93.7422 57.2344C94.1484 57.7135 94.5807 58.0938 95.0391 58.375C95.5078 58.6667 96.0182 58.8125 96.5703 58.8125C97.0703 58.8125 97.612 58.6823 98.1953 58.4219C98.7891 58.1719 99.4297 57.7396 100.117 57.125C100.378 56.9167 100.544 56.75 100.617 56.625C100.701 56.5104 100.758 56.4531 100.789 56.4531C100.82 56.4531 100.841 56.474 100.852 56.5156C100.872 56.5573 100.883 56.599 100.883 56.6406C100.893 56.6927 100.898 56.7396 100.898 56.7812C100.898 56.8229 100.904 56.849 100.914 56.8594V56.8906C100.914 56.9427 100.893 56.9896 100.852 57.0312C100.883 57.0312 100.904 57.0469 100.914 57.0781C100.935 57.1198 100.945 57.1667 100.945 57.2188C100.945 57.3021 100.924 57.3854 100.883 57.4688C100.81 57.5729 100.721 57.7552 100.617 58.0156C100.513 58.2865 100.372 58.5885 100.195 58.9219C100.029 59.2552 99.8203 59.599 99.5703 59.9531C99.3203 60.3177 99.013 60.651 98.6484 60.9531C98.2943 61.2552 97.8672 61.5 97.3672 61.6875C96.8672 61.8854 96.2891 61.9844 95.6328 61.9844C95.237 61.9844 94.8255 61.9323 94.3984 61.8281C93.9818 61.724 93.5599 61.5417 93.1328 61.2812C92.7161 61.0312 92.2995 60.6979 91.8828 60.2812C91.4661 59.8646 91.0651 59.3438 90.6797 58.7188C90.4818 58.4167 90.2734 57.9427 90.0547 57.2969C89.8464 56.651 89.6224 55.9219 89.3828 55.1094C89.1536 54.2865 88.9089 53.4219 88.6484 52.5156C88.388 51.6094 88.1068 50.7396 87.8047 49.9062C87.5026 49.0729 87.1745 48.3229 86.8203 47.6562C86.4766 46.9792 86.1068 46.4635 85.7109 46.1094C85.4922 45.9219 85.2682 45.7396 85.0391 45.5625C84.8099 45.3854 84.5807 45.2344 84.3516 45.1094C84.1328 44.974 83.9141 44.8698 83.6953 44.7969C83.4766 44.7135 83.2734 44.6719 83.0859 44.6719H83.0234C83.0234 45.2344 83.0234 45.8333 83.0234 46.4688C83.0339 47.1042 83.0391 47.7448 83.0391 48.3906C83.0495 49.026 83.0599 49.651 83.0703 50.2656C83.0807 50.8802 83.0911 51.4531 83.1016 51.9844C83.1224 52.5052 83.1432 52.9688 83.1641 53.375C83.1849 53.7708 83.2057 54.0729 83.2266 54.2812Z" fill="#543B25"/>
<path d="M112.461 33.4375C112.534 33.4375 112.576 33.4583 112.586 33.5C112.596 33.5312 112.544 33.5885 112.43 33.6719C112.409 33.6927 112.398 33.7135 112.398 33.7344C112.398 33.7448 112.398 33.7604 112.398 33.7812C112.398 33.8021 112.388 33.8333 112.367 33.875C112.357 33.9062 112.326 33.9531 112.273 34.0156C112.18 34.1198 112.008 34.3281 111.758 34.6406C111.508 34.9531 111.211 35.3333 110.867 35.7812C110.523 36.2188 110.143 36.7083 109.727 37.25C109.32 37.7917 108.898 38.349 108.461 38.9219C108.034 39.4948 107.607 40.0677 107.18 40.6406C106.763 41.2031 106.372 41.7344 106.008 42.2344C105.643 42.724 105.326 43.1615 105.055 43.5469C104.784 43.9219 104.586 44.2135 104.461 44.4219V44.9219C104.461 45.3177 104.451 45.7969 104.43 46.3594C104.419 46.9219 104.404 47.5208 104.383 48.1562C104.362 48.7812 104.341 49.4167 104.32 50.0625C104.299 50.7083 104.279 51.3073 104.258 51.8594C104.237 52.4115 104.216 52.8958 104.195 53.3125C104.185 53.7292 104.18 54.026 104.18 54.2031C104.18 54.349 104.169 54.4583 104.148 54.5312C104.138 54.6042 104.117 54.6562 104.086 54.6875C104.055 54.7083 104.008 54.7188 103.945 54.7188C103.893 54.7188 103.82 54.7188 103.727 54.7188C103.633 54.7188 103.581 54.6875 103.57 54.625C103.56 54.5625 103.539 54.5208 103.508 54.5C103.477 54.4896 103.456 54.5104 103.445 54.5625C103.435 54.6146 103.43 54.6719 103.43 54.7344C103.43 54.7969 103.424 54.8542 103.414 54.9062C103.414 54.9583 103.404 54.9844 103.383 54.9844C103.32 54.9844 103.253 54.9688 103.18 54.9375C103.117 54.8958 103.055 54.8542 102.992 54.8125C102.94 54.7708 102.888 54.7396 102.836 54.7188C102.794 54.6875 102.763 54.6771 102.742 54.6875C102.721 54.6979 102.716 54.7188 102.727 54.75C102.737 54.7812 102.742 54.8125 102.742 54.8438C102.742 54.875 102.737 54.901 102.727 54.9219C102.716 54.9323 102.69 54.9271 102.648 54.9062C102.596 54.8958 102.544 54.875 102.492 54.8438C102.44 54.8021 102.393 54.7708 102.352 54.75C102.31 54.7188 102.273 54.7083 102.242 54.7188C102.221 54.7188 102.206 54.75 102.195 54.8125C102.174 54.9583 102.159 55.1042 102.148 55.25C102.138 55.3854 102.102 55.4427 102.039 55.4219C101.935 55.401 101.799 55.3594 101.633 55.2969C101.466 55.2344 101.367 55.1042 101.336 54.9062C101.315 54.7812 101.305 54.625 101.305 54.4375C101.305 54.25 101.305 54.0365 101.305 53.7969C101.305 53.2656 101.315 52.6458 101.336 51.9375C101.367 51.2292 101.398 50.5052 101.43 49.7656C101.461 49.026 101.487 48.3125 101.508 47.625C101.539 46.9375 101.555 46.349 101.555 45.8594C101.555 45.1927 101.523 44.7969 101.461 44.6719C101.409 44.5885 101.247 44.3333 100.977 43.9062C100.706 43.4688 100.367 42.9375 99.9609 42.3125C99.5651 41.6771 99.1224 40.9792 98.6328 40.2188C98.1536 39.4583 97.6797 38.7083 97.2109 37.9688C96.7526 37.2188 96.3203 36.5156 95.9141 35.8594C95.5182 35.2031 95.2005 34.6615 94.9609 34.2344C94.9193 34.1615 94.888 34.0833 94.8672 34C94.8464 33.9062 94.8307 33.8177 94.8203 33.7344C94.8099 33.651 94.8099 33.5833 94.8203 33.5312C94.8307 33.4688 94.8464 33.4271 94.8672 33.4062C94.9089 33.3854 94.9661 33.3646 95.0391 33.3438C95.1016 33.3229 95.1797 33.3125 95.2734 33.3125C95.3672 33.3021 95.487 33.3021 95.6328 33.3125C95.6745 33.4375 95.7109 33.5156 95.7422 33.5469C95.7734 33.5781 95.8047 33.5885 95.8359 33.5781C95.8672 33.5573 95.8984 33.526 95.9297 33.4844C95.9609 33.4323 95.9922 33.3958 96.0234 33.375C96.138 33.2604 96.2109 33.1979 96.2422 33.1875C96.2734 33.1771 96.3464 33.2188 96.4609 33.3125C96.5651 33.4062 96.6432 33.4323 96.6953 33.3906C96.7474 33.349 96.8203 33.25 96.9141 33.0938C97.0078 32.9583 97.112 32.9271 97.2266 33C97.3516 33.0625 97.4922 33.1875 97.6484 33.375L97.8828 33.6406C98.0078 33.7865 98.2005 34.0521 98.4609 34.4375C98.7214 34.8125 99.0182 35.2604 99.3516 35.7812C99.6953 36.3021 100.06 36.875 100.445 37.5C100.841 38.1146 101.232 38.7344 101.617 39.3594C102.003 39.9844 102.372 40.5885 102.727 41.1719C103.081 41.7552 103.393 42.2708 103.664 42.7188C103.883 42.3333 104.174 41.8542 104.539 41.2812C104.914 40.6979 105.315 40.0833 105.742 39.4375C106.169 38.7917 106.612 38.1406 107.07 37.4844C107.529 36.8177 107.961 36.2031 108.367 35.6406C108.773 35.0781 109.133 34.599 109.445 34.2031C109.768 33.7969 110.008 33.5312 110.164 33.4062C110.237 33.3438 110.299 33.2969 110.352 33.2656C110.414 33.2344 110.466 33.2135 110.508 33.2031C110.56 33.1823 110.607 33.1719 110.648 33.1719C110.701 33.1719 110.753 33.1667 110.805 33.1562C110.961 33.1562 111.06 33.1667 111.102 33.1875C111.154 33.2083 111.185 33.2292 111.195 33.25C111.216 33.2708 111.232 33.2917 111.242 33.3125C111.263 33.3229 111.31 33.3229 111.383 33.3125C111.539 33.2917 111.69 33.2812 111.836 33.2812C111.982 33.2812 112.065 33.3125 112.086 33.375C112.086 33.3958 112.102 33.4115 112.133 33.4219C112.164 33.4323 112.273 33.4375 112.461 33.4375Z" fill="#543B25"/>
</svg>
